<svg id="Capa_1" enable-background="new 0 0 512 512" height="512" viewBox="0 0 512 512" width="512" xmlns="http://www.w3.org/2000/svg" xmlns:xlink="http://www.w3.org/1999/xlink"><linearGradient id="SVGID_1_" gradientUnits="userSpaceOnUse" x1="256" x2="256" y1="512" y2="0"><stop offset="0" stop-color="#addcff"/><stop offset=".5028" stop-color="#eaf6ff"/><stop offset="1" stop-color="#eaf6ff"/></linearGradient><linearGradient id="SVGID_2_" gradientUnits="userSpaceOnUse" x1="255.967" x2="255.967" y1="105" y2="406.938"><stop offset="0" stop-color="#5558ff"/><stop offset="1" stop-color="#00c0ff"/></linearGradient><g><g><circle cx="256" cy="256" fill="url(#SVGID_1_)" r="256"/></g><g><g><path d="m380.679 342.33-62.804-45.041c-2.923-2.108-6.817-2.22-9.888-.312l-35.249 22.083c-6.774 2.047-38.328-16.982-64.062-48.319-16.453-20.036-17.286-29.923-16.592-31.276l22.455-35.934c1.908-3.053 1.787-6.956-.312-9.887l-45.041-62.804c-1.518-2.116-3.894-3.46-6.496-3.677-2.455-.139-5.152.737-6.999 2.576l-32.404 32.404c-18.353 18.344-23.47 46.299-12.715 69.552 24.858 53.758 74.556 126.9 170.085 170.068 22.854 10.312 50.303 4.876 68.398-13.218l32.725-32.716c1.847-1.839 2.784-4.406 2.576-6.999-.216-2.606-1.56-4.982-3.677-6.5zm-18.153-237.33h-71.052c-24.485 0-44.408 19.923-44.408 44.408v35.526c0 21.449 15.282 39.386 35.526 43.514v18.656c0 3.365 1.899 6.436 4.909 7.945 3.096 1.537 6.689 1.13 9.298-.841l33.158-24.867h32.569c24.485 0 44.408-19.923 44.408-44.408v-35.526c0-24.484-19.923-44.407-44.408-44.407zm-71.052 71.054c-4.905 0-8.882-3.977-8.882-8.882 0-4.906 3.977-8.881 8.882-8.881s8.882 3.976 8.882 8.881c-.001 4.906-3.978 8.882-8.882 8.882zm35.526 0c-4.905 0-8.882-3.977-8.882-8.882 0-4.906 3.977-8.881 8.882-8.881s8.882 3.976 8.882 8.881c-.001 4.906-3.978 8.882-8.882 8.882zm35.526 0c-4.905 0-8.882-3.977-8.882-8.882 0-4.906 3.977-8.881 8.882-8.881s8.882 3.976 8.882 8.881c-.001 4.906-3.977 8.882-8.882 8.882z" fill="url(#SVGID_2_)"/></g></g></g></svg>